/* XPM */
static char *fino50[] = {
/* columns rows colors chars-per-pixel */
"50 50 103 2 ",
"   c #4A3B1F",
".  c #E5AB3D",
"X  c #FDC760",
"o  c #2379EA",
"O  c #359F9F",
"+  c #35A39F",
"@  c #35A4A3",
"#  c #38A7A3",
"$  c #38A9A7",
"%  c #36ABAA",
"&  c #3BABAB",
"*  c #35B1AE",
"=  c #39B1AF",
"-  c #3DAFB0",
";  c #37B3B1",
":  c #3BB4B3",
">  c #37B8B4",
",  c #3CB9B7",
"<  c #3FB7B8",
"1  c #3EBBBA",
"2  c #43ADAC",
"3  c #41B5B4",
"4  c #4DB7B5",
"5  c #43B9B6",
"6  c #4ABBB7",
"7  c #45B7B8",
"8  c #43BDBB",
"9  c #4BBDBD",
"0  c #53BEBE",
"q  c #59BDBD",
"w  c #45C1BE",
"e  c #4BC1BE",
"r  c #51C2BE",
"t  c #44BEC0",
"y  c #4ABDC2",
"u  c #52BFC2",
"i  c #45C3C1",
"p  c #4CC4C2",
"a  c #4EC8C3",
"s  c #53C5C3",
"d  c #5BC5C4",
"f  c #54C9C5",
"g  c #5CC9C6",
"h  c #55C7C8",
"j  c #59C7C8",
"k  c #55CAC9",
"l  c #5CCAC9",
"z  c #63C6C6",
"x  c #6EC7C5",
"c  c #63C9C6",
"v  c #64CBCA",
"b  c #6CCCCC",
"n  c #73CDCD",
"m  c #79CECD",
"M  c #65D0CC",
"N  c #6CD1CE",
"B  c #74D1CE",
"V  c #7BD2CE",
"C  c #67CFD0",
"Z  c #6ACED1",
"A  c #76CFD0",
"S  c #7CCFD0",
"D  c #64D2D1",
"F  c #6ED2D1",
"G  c #75D2D1",
"H  c #7BD3D3",
"J  c #76D9D4",
"K  c #7AD8D5",
"L  c #7FD7D9",
"P  c #7ED8D8",
"I  c #D8B78F",
"U  c #FFD7A8",
"Y  c #83D3CF",
"T  c #88D3CF",
"R  c #81CFD3",
"E  c #84D5D4",
"W  c #8AD6D5",
"Q  c #84D8D6",
"!  c #8BD9D6",
"~  c #83D6D8",
"^  c #8BD7D9",
"/  c #84D9D9",
"(  c #8CDADA",
")  c #92D6D6",
"_  c #93D9D7",
"`  c #9CD8D6",
"'  c #94D7D8",
"]  c #94DCDB",
"[  c #9BDDDC",
"{  c #A2DEDD",
"}  c #94E0DC",
"|  c #9CE0DE",
" . c #A3E1DE",
".. c #ABE3DE",
"X. c #96DCE2",
"o. c #9CDFE2",
"O. c #A4DFE0",
"+. c #ADDFE2",
"@. c #9CE2E1",
"#. c #A4E2E1",
"$. c #AAE3E2",
"%. c #B1E3E3",
"&. c white",
/* pixels */
"[ | | [ [ [ [ | ` ] } } #.( v p w w w a w : , > > 1 : > : : 7 f p h h f f b n Z ' #.{ [ [ | #.[ [ [ ",
"} [ [ [ [ [ [ [  .[ [  .O.E d w i 1 w v v e , 5 5 9 3 : : : 7 i s k s s f b b F ' { O.{ | [ | { [ [ ",
"[ [ [ [ { [  .| [ { { O.] n h i t w f H H k 1 y s s 7 : ; : 8 8 a l d s d v n F ] #.O.{ #.[ [ { [ | ",
"[ ] [ [ [ [  .[ #.O.$.o.m h p e y f F Q E v 9 h l l s 7 : : w i a l v l d v b M ] @.#.{  .[ [ [ [ ] ",
"[ ] [ [ [  . .O.$.#.] H l a p 9 p b ~ K V S d k l l h i , ; 8 p s c C l j c v v _ | ` [ [ ] [ [ ] ] ",
"] | [ [ [  .#.#.$. .' H l k h u v H W B B E b e s s p p 1 ; 6 e s v l h f b B F _ [ [ [ [ _ | [ ] ] ",
"] [ [ [ [  .$.$.$.$.[ ^ H b z c P ( E H G G n h p p p p 9 9 d d c b c r f Z H H _ ] [ ] ] ! ( ( ! W ",
"' [ [ ] [ #.#.$...{ ` [ o./ G J Q W E H A n J b h s y p p v J V F F c e h b A m ^ | ] ] ( E E V W Q ",
"/ ^ [ [ { { ..%.#.[ [ [ | [ { +.] Y E G n n H V k s p s b / ' ] Y B B s p s G E } | ] W E H B N H E ",
"( W ]  .` { $.$.@.[ `  ...#.#.$.#.o.] ~ m A Q H b v b B Q ( ] ' ( V N e p d J W _ ^ ! Q V H V H G G ",
"T Y ! ] ' { #.[ _ ] [  .$.$...$.$.$.@.^ n H / ( E W ( ( ] [ [ [ } E b 9 s g H W _ _ ! ( E m n G v b ",
"R K K K ^ ] ^ m W ] [  ...$.....O.#.] E m S ( ( W ^ ] ] ` [ } ] W E B j f s Z / [ ] ] ( P n b b N C ",
"L G c c P / m x K W ] { $.%.$.                                        v c r z K [ ' ' / H n c v d c ",
"z s 3 7 v G v G H H E ] #.$.$.                                        G N z z N ^ ^ W W Q b v d g c ",
"3 & @ $ 6 h v Z H H H Q / !       . . . . . . . X X X X X X X X X X X     v v v G G E ^ W G b c c g ",
"$ # & $ & s C b m m H B     o     . . . . . . . . X X X X . . . . . X     F v d e z S / W Q B c C l ",
"3 ; * % 1 i s j v b G b     o     . . . . . . . . X X X X . . . . . X     N v d a w 3 v / / b B v g ",
"7 1 : : w p p s h h j c     o     . . &.&.&.&.&.. X X     X X X X X       n z g l d 6 e d N v b G b ",
"i 8 < < 1 8 8 9 1 , e g     o     . . &.&.&.&.&.. X X     X X X X X       m n n n D r 8 5 e p s F b ",
"i i 8 < 1 1 , , * 5 s b           . . &.    &.&.. X X X X X X X X X X     K m G n G f e 8 1 , 1 e s ",
"p p p 8 t 1 > , 6 v ~ E           . . &.    &.&.. X X X X X X X X X X     V B N Z v g s s 8 1 1 , 1 ",
"w 8 7 1 , 8 w f G ] O.' W K   o o     &.&.&.&.&.. X X X X X X X X X X     K B b b v v d j h p 8 1 t ",
"i 8 , > 3 9 z H } #.O.{ | ]   o o     . . . . . . X X X X X X X X X X     K E Y m b v g g g h y 1 1 ",
"i i w 9 s v E X.{  .{ {  .`   o o     . . . . . . X X X X X X X X X X     ! ] ] X.H N g g j g j t , ",
"8 h j z z V ] $.| [ { #.[ [           . . . . . . . . X X                 ( _ } | | ] H z d j d p i ",
"p l C C v b L ' #.O. .[ _ W           . . . . . . . . X X                 ] [ _ ` [ o.~ v j k d p p ",
"e s l g l M b n W ) X.] ( ! W } [       . . . . X X X X X X     [ | [ _ ] [ [ [ ` o.( A g s p p p p ",
"w e y s k k l d z N G Q ( ( )     ) )   . . I I U U U U U U     _ ] ( W ! ] [ | @.] G z e e p t i i ",
"a i w 8 w p s r g M b b H E ^     _ [   . . I I U U U U U U     ! ! Q V V Q ( ] ( G c d s p p 9 p y ",
"p p i 8 , 7 s k z b b b b V E           . . I I U U U U U U     Q ( E B B H K H b g f k h s h s s p ",
"s s p 1 > 7 p l d d c Z N V W           . . I I U U U U U U     ^ ( Q B n N b v c s f d j r f k p p ",
"b v f w 1 8 9 p h p s g b H ]     X X X . . I I U U U U U U     ) ( H A b v c d v g M M c j r f p y ",
"b N b v s p 8 = s f p f B ( [         . . . . . X I I I I X     ! ! Q G b g g l v b v N v d e e 9 8 ",
"v b G F v l p 7 7 8 f b ! ] [         . . . . . X I I I I X     ] ( P v c g v Z F b n b v s p p i w ",
"b b N n b c c d e r g H ( ] _ | [       . . X X X X X X X X     _ _ E b c b b b G n m b k w w w 8 i ",
"F n b b v v b G M M x H ^ ( _ _ [       . . X X X X X X X X     ! _ ! W W / H b Z H A Z M p w w r s ",
"N b n G b n G H Q H V n H / ] _ ] [ ]   . . X X       . . X     ! } { O.#.o.W m V K N N P A d s b G ",
"G b m G B G Q ^ ) ] K c v B Q ^ ] ] }   . . X X       . . X     } | { $.%.$.] Q H G b m ] ] m D W / ",
"F n G G m K Q ( ] ] W b c c n K W ( ]   . .     [     . .   E ( | [ { ..$. .] ( W H V W [ [ ^ E W W ",
"b G H H H E W W _ ] ^ Q N g c b W ( ]       [ [ ]         _ W ( ] ` [  .#.] ] ] W E ] #.{ [ | ^ / H ",
"H G B H V H Q W [ ] E Q G b z v G / ]       } ! Q         E R ~ o.] @.#.{ ] ( / W [ ..$. .[ [ ] W Q ",
"H H B B H m E ( [ ] E E H A b J m H E E ] E Y H H E ] ] T E E E E _ ] ] _ ] ( Q _  .#.$. . .| ] ^ W ",
"/ Q V E E W _ ] [ ' R E H S A H H G b b F v b n n m W } T W ^ / W E m n K ^ ( ! { #.#... .{  .[ ] ( ",
"( ^ ! ^ ] _ ] [ ] ] E Q / ~ S H H b h y s C F A F b H / Q W ~ / ] G d d b H W [ $.$...#... .#.{ ] ] ",
"[ [ ] | ] ] _ _ } ^ m H H H n G n c a t 8 h v b l v v b / H S S / g 8 u C F K ` $.$...#. . .#.#.[ ] ",
"[ [ | | [ [ [ [ | ! n b b b b G n g a i ; - 6 s s s 9 4 b H E Q z 9 > p C b E { $.$.{ #. . .#.{ { [ ",
"[ [ [ [ [ [ [ [ [ ( A b b b c F v j t 8 @ @ & e y p > $ q H / H p 3 ; 7 l H ] |  .$.O.$.#.[ | [ o.[ ",
"[ { [ [ [ [ ] [ ] ( H G F b j g Z j e 9 @ @ @ : p i * @ 2 J P x i 7 : , d ^ O.} { #.{ $.#.[ | [ { [ ",
"[ [ [ [ [ _ [ [ ] ( H G B b r l v g l 8 @ @ @ # 7 5 $ @ & 0 M p 8 i 1 9 Q ] o.] [ [ @.#.[ { o.[ [ ] ",
"] [ [ [ [ ] [ [ ] ' m F B b s d g g l 6 @ @ + + @ $ @ + O 2 s 8 w t i s Q ] ] ] ] [ [ [ [ [ [ ` [ ] "
};
