/* XPM */
static char *exi[] = {
/* columns rows colors chars-per-pixel */
"50 50 186 2 ",
"   c #1E1C2C",
".  c #1E2332",
"X  c #1F2E3E",
"o  c #1F303F",
"O  c #222432",
"+  c #272F38",
"@  c #283039",
"#  c #1F3544",
"$  c #1F3C4B",
"%  c #272F46",
"&  c #273047",
"*  c #283147",
"=  c #26324A",
"-  c #293249",
";  c #223C4D",
":  c #2D3C4D",
">  c #263751",
",  c #253A56",
"<  c #253D59",
"1  c #20404E",
"2  c #354948",
"3  c #204553",
"4  c #24445D",
"5  c #2E465E",
"6  c #204C5B",
"7  c #2E4D5C",
"8  c #314154",
"9  c #334659",
"0  c #3C5757",
"q  c #1E5B6A",
"w  c #244D62",
"e  c #2A4C65",
"r  c #334E63",
"t  c #225466",
"y  c #215867",
"u  c #275368",
"i  c #215D6C",
"p  c #36576B",
"a  c #355B71",
"s  c #22616E",
"d  c #3B6269",
"f  c #256571",
"g  c #256976",
"h  c #2A6E77",
"j  c #2D6F79",
"k  c #316C77",
"l  c #336679",
"z  c #2B737C",
"x  c #3A7A77",
"c  c #387479",
"v  c #327B7F",
"b  c #436459",
"n  c #486D5F",
"m  c #426261",
"M  c #4C756B",
"N  c #486B79",
"B  c #4E7C70",
"V  c #517E70",
"C  c #3D847F",
"Z  c #498275",
"A  c #498D7E",
"S  c #568975",
"D  c #5A8F74",
"F  c #5B9075",
"G  c #5D957C",
"H  c #619C7D",
"J  c #2C7B84",
"K  c #367681",
"L  c #3A7785",
"P  c #327C84",
"I  c #427A85",
"U  c #368486",
"Y  c #31828B",
"T  c #388788",
"R  c #398A8A",
"E  c #3D918E",
"W  c #3F9692",
"Q  c #3A959A",
"!  c #36A5A5",
"~  c #39A6A4",
"^  c #37A8A7",
"/  c #3AA9A7",
"(  c #3BA6A9",
")  c #3AABAB",
"_  c #3BB0AF",
"`  c #3EAFB1",
"'  c #3CB4B3",
"]  c #3CB9B7",
"[  c #3EBBBA",
"{  c #42828C",
"}  c #55828D",
"|  c #559983",
" . c #478792",
".. c #588896",
"X. c #409792",
"o. c #429993",
"O. c #489D93",
"+. c #439299",
"@. c #4C969D",
"#. c #449C9A",
"$. c #4B9B9C",
"%. c #5AA38A",
"&. c #4EA292",
"*. c #4AA09B",
"=. c #54A692",
"-. c #5AAB92",
";. c #65A483",
":. c #68AB86",
">. c #6AAE89",
",. c #6CB28B",
"<. c #60AF92",
"1. c #64B292",
"2. c #6DB991",
"3. c #72BD91",
"4. c #5A94A0",
"5. c #549CA2",
"6. c #639EA7",
"7. c #4AA9A8",
"8. c #49ACAD",
"9. c #52A5A7",
"0. c #5CA3AA",
"q. c #53AAAF",
"w. c #5DA9AD",
"e. c #4AB1A8",
"r. c #59BCA5",
"t. c #43B4B4",
"y. c #4CB8B6",
"u. c #46BBBA",
"i. c #43BEBC",
"p. c #5CB7B5",
"a. c #53BCBA",
"s. c #5CBEBD",
"d. c #67A5AC",
"f. c #64AEB2",
"g. c #70ADB2",
"h. c #68BBB6",
"j. c #74B3B7",
"k. c #72BABC",
"l. c #3EC0BE",
"z. c #74C193",
"x. c #44C0BF",
"c. c #48C1BF",
"v. c #62C3AC",
"b. c #68C4AE",
"n. c #7BCBB4",
"m. c #46C2C0",
"M. c #4AC3C1",
"N. c #4FC8C6",
"B. c #53C5C4",
"V. c #5AC7C5",
"C. c #50C8C7",
"Z. c #5AC8C7",
"A. c #55CAC9",
"S. c #5DCBCA",
"D. c #68C5C3",
"F. c #64CCCB",
"G. c #6CCECD",
"H. c #75C4C4",
"J. c #7DC7C5",
"K. c #71CFCE",
"L. c #7ACDCD",
"P. c #65D0CF",
"I. c #6FD0CF",
"U. c #72D0CF",
"Y. c #66D2D0",
"T. c #6BD2D1",
"R. c #75D3D2",
"E. c #7BD4D3",
"W. c #80C6C7",
"Q. c #84D6D5",
"!. c #88D6D5",
"~. c #86D8D7",
"^. c #8BD8D7",
"/. c #85DAD9",
"(. c #8DDAD9",
"). c #93D7D5",
"_. c #94DCDB",
"`. c #9BDEDD",
"'. c #A0DFDE",
"]. c #95E0DE",
"[. c #9CE0DF",
"{. c #A2E0DF",
"}. c #9EE1E0",
"|. c #A4E2E1",
" X c #AAE3E2",
".X c #B0E7E6",
/* pixels */
"`.`.`.`.`.`.`.`.`.`.[.[.[.[.Y.M.c.x.x.M.m.l.l.] ] ] ' ] ' ' i.M.B.B.B.B.F.G.G.G._. X|.|.{.[.{.{.`.`.",
"`.`.`.`.'.`.`.`.[.[.{. X|./.A.m.x.x.x.T.Y.m.l.] l.l.' ' ' ' i.M.B.V.V.M.B.F.G.U._.|.|. X{.[.[.`.`.`.",
"`.`.`._.`.'.`.'.{.[.|..X[.Y.A.m.x.l.S.E.E.A.x.x.N.A.i._ ' ' i.x.B.V.V.B.Z.F.G.U.]..X|.|. X{.`.`.`._.",
"_.`._.`.`.'.'.'.|.{. X|.E.A.A.m.x.B.E.E./.Y.m.A.S.A.B.] ' ' x.x.c.F.F.S.S.F.F.G.]..X|.|.{.[.{.`.`.`.",
"`.`.`.`.`.'.'.'.{.{.{.E.S.A.C.c.x.p.p.h.n.n.v.b.b.b.v.v.r.r.e.7.y.F.G.Z.B.S.F.F.(.|.{.[.[.`.`.`.`.`.",
"_.`.'.'.`.'.{. X.X{.`.U.F.Z.A.M.P.9.W -.3.3.3.3.3.3.3.3.2.3.&.W 8.F.F.B.S.G.U.U._.]._._._._._.`.).^.",
").'.`.`.'.{. X X X{.[._.L.a.y.a.b.9.W -.3.3.3.3.3.3.3.3.z.2.&.W e.s.y.y.s.G.E.E.(._._._.`._.^.^.^.^.",
")._.`.`.`.'. X{. X[._.[.J.o.o.o.#.o.W -.3.3.3.3.3.3.3.z.2.z.&.W o.o.o.W *.D.E.L.(.[.[._.^.E.E.E.Q.Q.",
"^.(.`.`.`.{. X X X`.).).J.X.X.X.W O.O.-.3.2.2.2.,.2.2.2.2.2.&.W o.X.o.X.#.a.K.E._.`._.Q.Q.E.R.U.E.Q.",
"!.^._.`.`.{. X X'._.k.$.*.X.X.X.o.1.2.2.3.-.O.O.O.O.o.&.&.o.W W X.X.o.o.W #.*.H._._.^./.E.R.R.U.U.U.",
"E.Q.^.`._._.|.`.).^.h.o.X.X.X.X.o.1.3.3.3.-.o.X.E o.W W W W W W X.X.X.X.W o.o.H._.].(././.R.R.R.R.P.",
"Q.Q.E.E.(._.^.E.w.{  .o.&.1.1.1.1.2.3.1.&.O.o.R h h h h j h h z h j h j z E o.R I W.].].(.T.Y.Y.Y.Y.",
"E.E.S.F.E.!.R.U.$.q v W &.3.z.3.3.3.3.-.X.X.X.T s y q q i i i i i i i y s X.+.g s k.].(./.T.Y.P.S.P.",
"G.a.' i.G.U.+.P j q P o.&.3.2.=.&.&.&.O.X.U h g s y w 4 6 4 4 4 t i i i i g j f s L I f./.R.Y.S.A.S.",
"t.^ ! ^ y.Z.P q i i v X.&.3.2.X.X.X.X.o.o.P q i i y < < < < 4 < t i i s i i q s q q i 5./.R.T.F.P.S.",
"^ ^ ^ ^ ) M.P i i i C -.<.3.2.O.X.U v J P g s i s y # % # % > < 4 w w w w i s q f s q 5.(.Q.U.F.P.S.",
"' ' ) ` [ M.J i q q A z.3.z.2.O.X.h i i q s s s s q .       ; < < < < , 4 u s q s q q 5./.!.K.F.P.V.",
"[ ] _ ' ^ ( z i h x | 3.2.1.<.O.X.h i i s t 3 6 6 3 O       = < < < < < 4 u t q q s q Y q.s.F.G.I.G.",
"x.i.] ' g s s q A 3.3.3.1.X.o.X.W j i i i $                 ; < < < < < < < < t s q s s y J u.B.K.K.",
"M.M.[ ' g q s q A 3.3.z.1.o.o.X.W h i y q $   O + + + + @ @ ; , < , , < < < < t q s s q q J ] [ c.M.",
"M.M.x.' g s s i A 3.3.3.1.o.X.o.o.h q 3 . .   2 ;.:.:.:.:.;.0 % % = = < < < < u s s s s y J i.[ ] [ ",
"M.x.] ` f i i q A 3.3.3.1.X.o.X.W j s $       2 3.3.3.3.3.3.r & % % = , < < < u s q q s i P c.l.[ i.",
"x.m.] ) f i i i f x | z.1.X.X.X.W h s $   0 D H 3.>.0 2 H 3.;.H m % = = > , < 4 e t s q q P Z.M.[ [ ",
"m.M.i.t.h i i i s q A z.1.O.X.X.W j s $   n z.z.z.:.@   F z.3.3.M % % % = , < < , t q s q P S.B.c.[ ",
"M.B.S.s.g s s y i i A 3.1.o.X.X.W h i $   2 n n n b O   Z -.2.z.;.M m % - , < < < u i i i J V.V.B.i.",
"M.S.F.s.j y s s s i A z.1.o.X.X.W h s $                 x o.1.3.3.3.H % - , < < < q i i i L V.V.B.c.",
"c.B.Z.a.g y t w u i A 3.2.-.-.o.o.j i 6 $ X         ; 1 U o.1.z.| M m & & , , < < q i i q J M.M.c.M.",
"M.m.M.y.g y w < w s A 3.3.3.2.O.W h q i q $       O t s T o.1.z.M % % % & , < < < u i i i J i.c.c.c.",
"M.M.c.` f u 4 < w t x %.%.2.2.&.W C g f i 3 o o o * y s T X.| G m % % % = , < < < t i i i J c.c.M.M.",
"M.M.M.` e < < < < < w s C z.1.o.W o.W v i i i i i y i s T X.7 & & % & % = < < < < u i i q J B.B.B.M.",
"B.B.M.` e < < < < < 6 y x ,.2.*.W W W U f f f f f f f f T X.7 % % % % % % , < < < u i q w J B.V.A.M.",
"F.G.B.` e < < < < < < 3 d z.2.&.W W W W E E E E E E R X.X.X.7 % % % % % = , < < < 4 < 4 , K M.B.c.c.",
"F.U.U.s.e < < , , , < < a 3.2.@.O.X.X.o.o.o.X.O.X.o.o.o.E X.7 * * % % % * < < < < < , < < K c.c.c.l.",
"F.U.K.G.q.5.K > , , < , a 2.3.1.1.1.1.=.o.o.X.X.X.O.-.<.N 5 - * % % * % & , < < < < > I 5.8.c.c.c.c.",
"F.K.G.G.G.F.K , < < < , d 3.3.3.3.3.3.-.Q X.X.X.X.O.3.3.0 % % & & & % % % , < < < < ,  .S.c.c.c.c.c.",
"G.K.G.K.F.D.a > < < , > 9 M V ,.3.3.3.1.-.-.-.-.-.=.B M : % % % * & & = ; < < < < < <  .P.M.c.c.c.V.",
"U.K.U.U.G.G.I > , , > % % % : >.3.3.3.3.3.3.3.3.3.>.: % % % & % % % = < < < < < , , < I /.E.M.B.P.E.",
"I.G.R.L.K.L.I I p , > % % % : S G H H G G G H H H S : % % % % % % % = > , < < < < a K 6._.(.K.I.!.~.",
"I.I.U.R.R.Q.Q.!..., > % % % % - * * * * & * * * & & & % % % % & % % % & & < < < < 0.G.)._.`.^.!.!.Q.",
"K.U.R.E.R.Q.Q.!.6.I r = - % % % % % % % % % % % % & & & % & & % * % % % & > < a L j.[.{.`.`.[.^.Q.Q.",
"L.R.L.E.E.E.E.!.)._...< , % % % % & % % & % % & & % % % % % % % % % % % % % = d.!._. X X{.`.`.).~.!.",
"Q.R.I.E.E.E.E.(.'.'.4.e 5 % % % % % % & & % % & % % % % % % % % % % % % % 8 5 g._.{. X{.{.'.`._.!.~.",
"!.Q.E.E.Q.!.).[.`._.L.L.6.- % % % % % % % % % % % & % % % % % % % % % % 8 j.W.!.'. X X{.{.'.{.{._.^.",
"^.^.(.)._._._._._.).Q.(.g.> = = & % % % % & & % % % % % % % % % = = % % 5 W.(.].{. X X X X{.{.'.[.(.",
"_._.'.`._.)._._.].(.E.E.W.d.0.0.5.7 % % % % & & & % % % % % % % I 4.Q +.w.G.E.[.|. X X|.{.{. X{.}.].",
"[.[.'.`.`._.[.`.[.].T.Y.T.T.Y.R.G.p % % % % % & % % % % % % % % I y.[ M.Y.Y.(.|..X.X.X.X X X|.|.|.}.",
"`.`.`.`.`.`.`._._._.R.T.T.T.P.T.G.+.K v k k k K L L c l c } } } Q ' ` l.A.R.[.|. X.X.X|.|.|.{.{.|.}.",
"`.'.`.`.`.`.`._.[.(.R.R.T.P.Z.F.F.F.M.x.) ~ / t.M.M.) ) t.U.(.F.c.i.] [ A.].|.}.|.|.|. X X|.{.}.}.}.",
"`.`.`.`.`.`.`._._.).R.R.R.P.N.S.F.F.V.i.( ( ( ( i.t.) ) ~ s.R.M.l.M.l.M.E.|.}.}.}.}.}.|. X}.|.|.}.].",
"_.`.`.`._._.`.`.`.!.R.R.R.T.A.A.S.Z.V.c.! ! ~ ! ) ( ~ ~ ^ 8.M.[ l.c.c.S.(.].].].].[.}.}.}.}.}.}.}.]."
};
