/* XPM */
static char *flor[] = {
/* columns rows colors chars-per-pixel */
"50 50 39 1 ",
"  c #36A4A3",
". c #37A8A7",
"X c #3AADAB",
"o c #3AB1AF",
"O c #3CB5B3",
"+ c #3DB8B7",
"@ c #3EBBBA",
"# c #43B5B4",
"$ c #42B8B7",
"% c #43BDBB",
"& c #4ABFBD",
"* c #54BFBD",
"= c #45C0BF",
"- c #4AC0BF",
"; c #59C0BF",
": c #46C1C0",
"> c #4BC3C1",
", c #53C6C4",
"< c #59C7C6",
"1 c #5BC8C7",
"2 c #5EC9C8",
"3 c #64C9C7",
"4 c #64CBCA",
"5 c #6CCECD",
"6 c #70CFCE",
"7 c #72D0CF",
"8 c #76D1D0",
"9 c #7BD3D2",
"0 c #84D6D5",
"q c #88D7D6",
"w c #8AD8D7",
"e c #8ED9D8",
"r c #94DBDA",
"t c #9BDEDD",
"y c #A0DFDE",
"u c #A2E0DF",
"i c #A6E1E0",
"p c #AAE3E2",
"a c #B1E5E4",
/* pixels */
"tttttttttrtrtr4:::=>=++OO+OOOO%>,,,,4557wyytttyytt",
"tttttuttttiii0<::=:44:@O%:OOOO@>,<<>,457riyiyytytt",
"tttrytttytiie4<:==<99>::>,%OOO%:,<<,<457riyyyytttt",
"rtrttytiiyiy9<<:=,9905:,2<,+OO@:>4422446tiyyyytttr",
"ttttttyuiir92<,::59909,2222>OO=>,45<,144wyttrttttt",
"ttuttiippir82<,>49q9892,,>>>+X%>,12,2576etteerttew",
"rtttripppptr94,29q09887,,>>::><,45<>2599rtettrweqw",
"erttriippytrrr99wq998785<,:>>499774-,598wttrw99900",
"wettrippptttttyir0995799<,>>5qrw987,-,70rtr0098899",
"qwrttiapyrtiiiipptr058095257qerrw95,>19qrewq988988",
"90wtrrutretyippiipiq89ew0qertrttrq5-,38qrrwq088855",
"0099erw90rtypapiiir989qwqqetrrrtq05<,,5qrrewq64456",
"99249w859qeupappiteq00qqqwrttrew09944,19rrrw064422",
"4;+$5846900rppiiterrrrewqettrq0qq00854<7eeq0984222",
"#. .$255990qqeeeqqertttrertrq99qqq09555170qq086442",
".X..X>45858842490qwrttiituutrq900q99955<>18qw0645<",
"OOXO+>,<4586<,4890qwtttiipppirw009009722<%%5qq545<",
"@Oo+@>>>,,222555880qrttttipppirew99095222<%$<64555",
":%+@@:>%%@>169958899ettuippppiitewqeq85555,$->%,85",
":>@@@+++OO,7998578870wrtipaapiiiiyrq009855<,@@+@&>",
">>@:%+@@%409998899999qqetppppitippt98888652<>%=@+@",
">:+@+$:,6tyrq9900q999q0wrtippituypt9988764<<2<:=@@",
":=+O+&38tuuutrww0098900errtpiuttyit00q096442<<<:@=",
":>%:<48tuuuyutrte0989qweriipitiiyyr900ereq82<22<:@",
":,2446tiuyyyytryrrq99weetuiutttuyyr9eetrtyt8222<>:",
">244450ruytyrrwtrrrwqwqqrtitttrttiteetrrrttq4<<,>>",
">>2454450rtewqqttrrrqqrtiittrrrrttyerttrttr5<<>>>>",
"::>>,<42448qwwqytrrewtyuitttrerrereqertttr82>:::>:",
">>:%:>>,45569qwuyrrtuuuyuytrtreeweq890etr82<,,>::>",
">>>++=>,2555589tutiiuuiputrrreeeee9888897<<<>,,,,>",
",,>%+$,11,2589qtipiiuippptrrreeree9577741<<2<,,<<>",
"44<=@%$><,>140rtttupuppppytrrereweq7542<44254,>,::",
"4662,>+#>,><8rrrttyyuppppytttreeqe06521145654,>>:%",
"586644,+#><5qrryyttttuuppyytyyrrqeq5414555642,>:>:",
"4655444,:-49qrruytyyruuuuyyyyyttrr03445566662>:::%",
"565744676549qwrrtrrrruuutrryyrrrwwwrq09888664>::>,",
"857847999q859wwrrrrrtuutrrrtyteqwrtiutw6898509>,40",
"758878qwer94499wertrrrutrrrtrrqeruupppr09858rw66qq",
"768880qqrrq61169errreeutrrtrte0ryruppurre88etreq00",
"678999qqrrw06416qwrrttttttyyte0rrrrpprrrqqrutttqq0",
"8889999qrrwq95159qqrttre0wyyr09qrtyitreqqrppirtrq0",
"q968999ryt0986596900rq8980tr00000ertrewwriiiityrqq",
"q0990qette9009599655545889qr0qq0qq85qwweypiiiyiyrq",
"wwrerrrrrr00q08906>>,466668wwq0qw0,>59wrippiiuyytr",
"rrytrrrttr89996854,=%,4534460890q4$,669tpppiiiiiyr",
"tyyttrttte54555652,&XX&>-,-#69084$+&45wyppiiiyyytr",
"tyttttrtre8655465,=%. X&>,# *0w0&OO$,9ryiiiiyytttt",
"tttttttrrr88641241>%   O::X.#6w3%%++,eytyiyuiytttt",
"ttttttrtte9882,244<%    $+. .*6>:>=%9ttttttuuttytr",
"rrytrrttrw8886,,<21:         #&$%:=1wrrwrrttrttttr"
};
