/* XPM */
static char *ginger[] = {
/* columns rows colors chars-per-pixel */
"50 50 106 2 ",
"   c #100401",
".  c #006730",
"X  c #FC002C",
"o  c #93532F",
"O  c #E7A870",
"+  c #E473D5",
"@  c #359F9F",
"#  c #35A39F",
"$  c #35A4A3",
"%  c #38A7A3",
"&  c #37A9A7",
"*  c #38A9A7",
"=  c #36ABAA",
"-  c #3BABAB",
";  c #35B1AE",
":  c #39B1AF",
">  c #3DAFB0",
",  c #37B3B1",
"<  c #3BB4B3",
"1  c #37B8B4",
"2  c #3CB9B7",
"3  c #3FB7B8",
"4  c #3EBBBA",
"5  c #43ADAC",
"6  c #42B3AF",
"7  c #41B5B4",
"8  c #4DB7B5",
"9  c #43B9B6",
"0  c #4ABBB7",
"q  c #45B7B8",
"w  c #43BDBB",
"e  c #4BBDBD",
"r  c #59BDBD",
"t  c #45C1BE",
"y  c #4BC1BE",
"u  c #51C2BE",
"i  c #44BEC0",
"p  c #4ABDC2",
"a  c #52BFC2",
"s  c #45C3C1",
"d  c #4CC4C2",
"f  c #4EC8C3",
"g  c #53C5C3",
"h  c #5BC5C4",
"j  c #54C9C5",
"k  c #5CC9C6",
"l  c #55C7C8",
"z  c #59C7C8",
"x  c #55CAC9",
"c  c #5CCAC9",
"v  c #63C6C5",
"b  c #6EC7C5",
"n  c #63C9C6",
"m  c #6BCBC7",
"M  c #64CBCA",
"N  c #6CCCCC",
"B  c #73CDCD",
"V  c #79CECD",
"C  c #65D0CC",
"Z  c #6CD1CE",
"A  c #74D1CE",
"S  c #7BD1CE",
"D  c #67CFD0",
"F  c #6ACED1",
"G  c #76CFD0",
"H  c #7CCFD0",
"J  c #64D2D1",
"K  c #6ED2D1",
"L  c #75D2D1",
"P  c #7BD3D3",
"I  c #76D9D4",
"U  c #7AD8D5",
"Y  c #7FD7D9",
"T  c #7ED8D8",
"R  c #83D3CF",
"E  c #88D3CF",
"W  c #81CFD3",
"Q  c #84D5D4",
"!  c #8AD6D5",
"~  c #84D9D6",
"^  c #8BD9D6",
"/  c #84D6D8",
"(  c #8BD6D9",
")  c #84D9D9",
"_  c #8CDADA",
"`  c #92D6D6",
"'  c #92D9D7",
"]  c #9CD8D6",
"[  c #94D7D8",
"{  c #94DBDA",
"}  c #9BDDDC",
"|  c #A2DEDD",
" . c #ADDFDE",
".. c #94E0DC",
"X. c #9CE0DE",
"o. c #A3E1DE",
"O. c #AAE2DE",
"+. c #96DCE2",
"@. c #9CDFE2",
"#. c #A3DFE0",
"$. c #ADDFE2",
"%. c #9CE2E1",
"&. c #A4E2E1",
"*. c #AAE3E2",
"=. c #B1E3E3",
"-. c white",
/* pixels */
"} X.X.} } } } } } { { ..&._ M d s s t d t < 2 < 1 4 < < < < w g d l g f c N V F [ #.| } } X.o.| } } ",
"..} } } } } } X.o.} { o.X.! h w s 4 y M M t 2 9 w w 7 < < < w s f l h g k M F K ` #.#.| o.} X.} } } ",
"} } } } } | o.} } |  .#.{ B j d w t x U U k 4 p g g q < < < w w j c c j g n B K } &.#.#.%.} | } } } ",
"} { } } } X.o.} o.#.&.@.V h d s p j Z ~ Q M y l k c g q < < w s d c M x c M m C { %.| | #.} } } } } ",
"} } { } } | o.o.&.&.} P c x d e d F / P S P h x k c l s < , w s u M D c h M m M ' X.} ] } { } } { { ",
"} X.} } } o.&.&.*.o.{ L c l l a M P ! A A Q N d g g g d w < 0 y g M M g j M A Z ' } } { { { } } { _ ",
"{ } } } } o.*.*.=.*.} ! P M h n T ( ! P L P B g y d s d e p h h n N M u j F P P ' ..} } { ^ _ _ ( ~ ",
"[ { } { } #.*.*.O.| ] } %.( P U Q ^ P U V F L N x g p s g M U A N K M y l N P A ^ } { { _ Q Q R ^ ~ ",
") ^ } } | | *.=.&.} } } X.o.| *.{ R Q L B B U S c d d g N / { { R A L g d g L / ..} { ^ Q P A A P Q ",
"( ! { o.} | *.*.@.} ] o.o.&.o.&.&.@.{ / V G Q P M N N A ~ { { ( ^ P Z e d k L ! ' ' ^ ~ S S P L A P ",
"! W ^ { ] ] #.} { { } o.*.*.*.O.*.*.%.( B H ) ( Q ! ) _ { X.} } { T m e d c L / { ' _ ( P S V L N N ",
"W U U U ( { ( V Q { } o.O.=.O.O.$.#.{ Q V P _ _ ( [ { { } ] { ..^ ! B g j h B / { { _ _ ~ B N N D C ",
"P L M n T ( V m Q Q { o.*.=.*.$.&.{ ' Q P Q ! ^ Q ( } } { { ^ _ ! Q P N k g v P } [ [ ( P A n k h n ",
"M g 6 q M K m K P Q Q { &.*.*.&.} { ^ { { o o o o o o o { ^ ! ( ^ Q P L Z v n Z _ ( ! / / N M k M c ",
"6 - $ * 0 h M F P S P ~ ~ ^ ( _ ~ ^ ^ } o O O O O O O O o Q P / ! Q Q U A M M M Z P / ! ! L N k k k ",
"* * * * : g D N B S P A m v N L S ^ ^ o O O O O O O O O O o P / P Q / ! A K M h u v L ( ( ! B M M c ",
"7 < = ; 4 s g h M F L N h k M B P Q ( o O O O O O O O O O o ! Q Q / / P U Z c c d t 6 M ) ) m A M k ",
"w 2 < < t d d l l l k M h m N Z A U o O O O   O O O   O O O o ` Q Q Q P U N n n M h 0 e h Z M N L N ",
"w w 3 < 4 i w e 3 2 w k A U L N N L o O O O O O O O O O O O o } ' ^ ! ^ ( P N N N J g 9 w y d g Z K ",
"s d w 3 4 4 2 2 ; 9 h F P U P N V L o O O + O O O O O + O O o &.o.} { ( ! P G P G K k d w 2 < 4 y u ",
"d s s e s 4 1 2 0 M / / S A P P U / o O O O -.O O O -.O O O o &. .o.] R S S A A F M c l g w 4 4 2 4 ",
"s t w < 2 4 t g L { #.[ ~ P S Q Q ! P o O O O -.-.-.O O O o } | | *.X.Q S I A m N M k h k g d w 4 i ",
"s w 3 < 7 e M L } &.#.| } { Q ! Q Q P P o O O O O O O O o o.} } | *.} Q / T ~ R V N N h k z z p 4 4 ",
"s s w s g n Q +.| o.| | | ] { %.! ~ P A P o O O O O O o *.| | #.} } { Q Q ^ _ { { U K k c z k z s 4 ",
"y g n n n G { *.%.} | &.} } } #.} o o o o O O O O O O O o o o o &.} { Q ! ^ { { X.X.{ P v z k h d i ",
"d c D M M N Y [ %.#.| } { ^ ^ ..o O O -.O O O O X O O O O -.O O o X.} { { { { ] } } @./ M c z g g s ",
"s g c c c C N G ! [ { { ^ ! ! } o O O -.O O O O O O O O O -.O O o %.} ' { } } } } ] _ G h d d g d s ",
"y y p g l c j h n B P U _ _ ` | o O O -.O O O O . O O O O -.O O o { _ ! ! { } } %.[ H v u s s i s i ",
"s d t w t s g u c N N B P Q ( #.X.o o o o O O O O O O O o o o o ^ ^ ~ S S ~ _ { _ L M j g d d e p s ",
"f d s 4 2 w g c n m M F B A Q ..&.X.&.&.o O O O X O O O o ^ _ _ ~ ^ ~ A A P P P N k h j g g l l l g ",
"g g d w < w d c h h M M Z L ^ } &.&.*.o O O O O O O O O O o { { ( ^ / A Z Z N M n g j k h u g x g d ",
"B M l s 2 2 e d l d g k N Q { | } } &.o O O O O O O O O -.o _ [ ' _ P B N N M h M M c C M h g f d y ",
"N Z N M g y w : g x d h A _ X.} } } o O -.-.O O o O O -.O O o ^ ! ^ ~ L N M c c N M M K M h e d e w ",
"n N L K M c u 9 w t j N ^ { { X.} X.o O O O -.o *.o -.O O O o ' { ^ T N k k M M K N N N c j y d s s ",
"N N K N N M M h w u k P { ` { ..} X.o O O O O o &.o O O O O o } { ' P m n m N N L N V N k t s t w t ",
"K N B N v M N L Z M m V / ' { { } } { o o o o o.} { o o o o { ' ^ ' ^ ^ / ! U B G L G G C d t t y l ",
"Z N B L N N L U ~ ~ A N P _ _ { { } { ' { } %.| { [ } } ..} ^ ^ ^ ..| #.#.#.^ V L U Z Z T G g g N L ",
"K B V L V P / ( ( _ Q N M A ! ( { { ..} { } } X.{ { { { ..' ~ _ ....| *.=.&.{ / P L N V +.{ G C ! / ",
"Z B L L A U ^ ( { { ! N v n N P ! ' { } { } } } } { } } } ' R _ X.} | O.*.@.{ _ ! S V ! } } ( Q ! ! ",
"B L P P P P ^ ! ' { ^ ~ Z k n Z ^ ^ _ { { } X.} { } o.X.} ` Q { } ] } o.&.} { { ( ! } &.} } X.' ! U ",
"L L L P P P Q ^ ] { Q ~ L m v M L ( { ` } X.{ ) / _ %.} { Q Q / } { X.&.} { ( ) ! X.&.*.O.} } ' ! / ",
"T P A S V S Q ^ } } Q / P G F I B P Q Q ..Q Q U P Q { } E Q Q Q ! ( } ..' } _ ~ { X.&.O.o.| X.{ ( ! ",
"/ Q S Q ! ! ^ { } { V Q P H H U T A N N Z N m B B V ! { R ! / / ! Q V B P ( ' ^ | &.*.*.o.| &.} _ _ ",
"^ ( ^ ^ _ { { } { { Q / / / V P P N l e g c L L K N U ) ~ ! ! Q ..L h h N U ^ { O.*.o.O.O.o.&.o.{ { ",
"} } } ..} { ' { } _ V P U P V L B M g i w l M N c M M N T P H Q / k w a D K P } *.*.&.O.o.o.*.| } } ",
"} } X.X.} { { } ..^ B m m N m K F M d s , > q g l g 0 8 N P Q / n w < p D N Q | *.&. .&.o.o.&.o.| } ",
"} } } } } } } } @._ H N N N M K N a s w & $ - e d s < * r P ) P p < < 4 z P { X.o.*.#.*.&.| } X.@.} ",
"| } } | } } } [ } _ P L F F h c F k s e $ @ * < d s ; $ 5 U T b t q 7 4 h _ &.{ o.&.#.&.&.} X.{ } } ",
"{ } } } } { } } { [ L L A m y c n c x 0 $ $ $ % w 7 * $ * r J d t s w e U } } +.{ } o.| } | } | } { ",
"} } } } { { } } { ` A L L N g c n k c 0 $ $ # # $ * $ $ @ 5 g w t s t g / { { _ } } X.} } } } } } { "
};
