/* XPM */
static char *wal[] = {
/* columns rows colors chars-per-pixel */
"50 50 178 2 ",
"   c #2E243F",
".  c #2F2641",
"X  c #2F2842",
"o  c #302641",
"O  c #322A45",
"+  c #352D49",
"@  c #382E4B",
"#  c #35324D",
"$  c #3A314E",
"%  c #34384F",
"&  c #39394F",
"*  c #3D3454",
"=  c #353A51",
"-  c #3B3C53",
";  c #403657",
":  c #413856",
">  c #413758",
",  c #443A5B",
"<  c #493F5E",
"1  c #493E61",
"2  c #354A5D",
"3  c #374F63",
"4  c #355163",
"5  c #395466",
"6  c #365668",
"7  c #385E70",
"8  c #386876",
"9  c #46405B",
"0  c #4D4364",
"q  c #454B62",
"w  c #4F4568",
"e  c #514669",
"r  c #554A6D",
"t  c #445367",
"y  c #45576B",
"u  c #45586A",
"i  c #4A596C",
"p  c #54516F",
"a  c #505A6C",
"s  c #574C70",
"d  c #594E72",
"f  c #4B5972",
"g  c #5D5276",
"h  c #5E5478",
"j  c #60567A",
"k  c #645A7E",
"l  c #4B6777",
"z  c #4F6878",
"x  c #556479",
"c  c #397983",
"v  c #665C81",
"b  c #695E84",
"n  c #586D82",
"m  c #4E7785",
"M  c #437884",
"N  c #4E7C88",
"B  c #577586",
"V  c #527D89",
"C  c #6B6086",
"Z  c #6E638A",
"A  c #71668D",
"S  c #73698F",
"D  c #66798A",
"F  c #766B92",
"G  c #796E95",
"H  c #7B6F99",
"J  c #7B7097",
"K  c #7D729A",
"L  c #81759E",
"P  c #8276A0",
"I  c #867AA4",
"U  c #887DA7",
"Y  c #8A7EA9",
"T  c #39858B",
"R  c #38858C",
"E  c #3B8C94",
"W  c #389093",
"Q  c #3D949A",
"!  c #36A5A4",
"~  c #3AA7A5",
"^  c #37A8A7",
"/  c #3DA7AA",
"(  c #3BACAB",
")  c #3AB0AF",
"_  c #3CB5B3",
"`  c #3DB8B7",
"'  c #3EBBBA",
"]  c #59818D",
"[  c #538690",
"{  c #568892",
"}  c #42949B",
"|  c #49979E",
" . c #54929B",
".. c #658390",
"X. c #6E8D9A",
"o. c #728A97",
"O. c #73919B",
"+. c #4E9BA2",
"@. c #5A9DA4",
"#. c #6898A1",
"$. c #4BA5AA",
"%. c #44ACAD",
"&. c #5BA3A9",
"*. c #47AFB1",
"=. c #44B2B2",
"-. c #49B7B7",
";. c #43BDBB",
":. c #52BFBE",
">. c #5FBCBD",
",. c #64A4AA",
"<. c #6FA5AC",
"1. c #78A8AF",
"2. c #62ADB1",
"3. c #7BABB1",
"4. c #65BBBD",
"5. c #6CBCBF",
"6. c #73BCBF",
"7. c #44C0BF",
"8. c #48C0BF",
"9. c #5FBFC0",
"0. c #72BFC1",
"q. c #7EBFC2",
"w. c #45C2C1",
"e. c #4BC3C2",
"r. c #4EC8C7",
"t. c #53C6C4",
"y. c #5AC7C5",
"u. c #53C8C7",
"i. c #5BC8C7",
"p. c #55CBC9",
"a. c #5DCBC9",
"s. c #63C3C3",
"d. c #6FC7C7",
"f. c #64CCCB",
"g. c #6BCECD",
"h. c #74C3C4",
"j. c #7FC3C5",
"k. c #72CECD",
"l. c #7CCBCB",
"z. c #66D0CF",
"x. c #72D0CF",
"c. c #66D1D0",
"v. c #6CD3D1",
"b. c #75D3D2",
"n. c #7CD4D3",
"m. c #7BD8D7",
"M. c #7AD9D8",
"N. c #8D81AD",
"B. c #8F84B0",
"V. c #9286B3",
"C. c #9488B5",
"Z. c #968AB8",
"A. c #83A2AA",
"S. c #83AEB4",
"D. c #89B6BB",
"F. c #91B9BF",
"G. c #87C6C8",
"H. c #94CBCD",
"J. c #9ACDCF",
"K. c #93CFD0",
"L. c #83D6D5",
"P. c #88D7D6",
"I. c #86D8D7",
"U. c #89D8D7",
"Y. c #85DAD9",
"T. c #8DDAD9",
"R. c #99D4D5",
"E. c #94DCDB",
"W. c #9BDEDD",
"Q. c #A0D0D2",
"!. c #A2DEDE",
"~. c #9CE0DF",
"^. c #A2E0DF",
"/. c #9EE2E0",
"(. c #A4E3E2",
"). c #AAE4E3",
"_. c #AFE9E7",
"`. c #B1EAE8",
/* pixels */
"W.W.W.W.W.W.W.W.W.E.~.^.~.~.z.w.e.7.7.e.7.' ' ' ` ' ` ` _ _ ;.e.8.a.8.8.x.x.g.x.T.^.).^.^.~.~.~.~.R.",
"W.W.W.W.!.W.W.W.~.~.^.).(.Y.a.7.7.7.7.c.z.w.' ` ' 7._ _ _ _ ' e.a.8.f.8.8.f.g.x.~.^.(._.^.^.~.^.~.~.",
"W.W.W.E.W.~.W.W.^.^.^.).~.z.p.7.7.7.a.n.m.$.5 4 6 $.;._ _ _ ;.7.8.f.f.8.f.f.g.k.~._.~._.^.^.~.~.~.~.",
"E.W.E.W.W.!.!.^.^.^._.^.M.p.p.7.7.t.b.n.L.,.O O X +.e.=.) _ ;.w.8.f.g.a.a.f.f.k.T._.(.~.^.^.~.~.R.~.",
"W.W.W.W.W.W.^.^.^.^.^.L.a.i.u.8.7.g.L.h.l x F F G a 5 5 R ` ;.e.8.k.g.f.8.a.f.f.T.^.~.~.~.~.~.R.~.E.",
"W.W.!.W.W.^.).)._.^.W.x.f.i.u.8.f.L.L.6.& 9 V.C.C.0     8 ) ;.e.8.f.f.8.f.g.k.k.T.~.~.T.R.T.~.~.T.U.",
"E.W.!.W.W.^.^.).).^.W.T.n.f.8.f.L.Y.#.i k C L N.V.S k k f 3 5 7 8.l.f.8.f.k.n.n.~.~.T.~.~.T.P.U.P.U.",
"U.E.W.W.E.!.).).^.^.W.~.E.T.n.L.L.Y.] O S L J U C.P J L r     & 5.n.f.8.8.f.b.n.Y.~.~.T.P.L.n.n.L.L.",
"U.T.W.W.W.^.^.).^.W.W.!.!.W.^.^.G.V n v K K I B.V.N.P K j : g k B ,.x.y.8.a.x.L.E.~.~.I.L.n.b.b.n.L.",
"P.U.E.W.W.!._.).!.W.W.!.!.!.^.`.S.. j V.K K V.V.V.C.N.K C g I U + ] v.8.8.y.n.P.E.T.I.Y.n.x.b.b.l.x.",
"L.L.U.E.E.W.^.W.T.U.W.!.^._.!.O.D k F U U N.V.C.V.F Z K k 0 K N.g x N %.u.z.n.P.~.E.T.Y.I.b.b.b.v.z.",
"n.n.L.L.T.E.U.b.L.E.W.!.).`.Q.& < V.U K B.C.C.C.V.r 0 K h * J V.L r   | u.8.g.P.~.~.T.~.T.v.z.z.v.x.",
"n.n.a.f.n.U.x.x.L.P.T.^.^.A.D k A V.Y Y B.C.C.K b j h h k b U V.L p   &.z.t.a.n.~.~.~.Y.Y.v.z.z.p.z.",
"d.:._ ;.g.x.f.x.n.L.L.E.^.a + N.Z.C.C.C.C.C.C.b * C C * b C.V.B.K r   ,.c.f.y.x.Y.T.Y.Y.I.b.z.a.a.a.",
"=.! ! ^ -.a.g.g.b.n.L.q...k k k b b L V.Y U U S h h h b K C.V.V.N.C d z [ s.g.a.b.L.Y.T.I.b.v.f.z.z.",
"^ ( ^ ^ ) e.z.c.x.b.m.,.O L N.< * * v V.K J J J H w s C.C.V.C.V.V.N.K : & 4.g.i.e.a.n.T.U.L.x.g.z.8.",
"_ _ ) ) ' r.p.p.c.d.{ B k v k j d g S I L F b b b 1 e U U I B.V.C.N.P < & 4.f.a.t.;.-.g.L.P.g.f.g.y.",
"' ` ) ` ' w.r.r.p.-.# 9 V.s > F L H H L L A d s d < e H H L Y V.V.V.C.0 = 4.a.a.a.i.;.;.a.g.z.g.g.g.",
"9.' ' ' ' w.w.w.E c h Z I b j F G b b b C v d e 1 > 1 b A L N.C.V.C.V.v p m  .g.g.g.8.-.-.8.7.u.b.g.",
"w.7.' ' ' ' ' ' 3 @ U B.G L L L A d d d d d d 0 ; ; < s b L Y C.C.C.C.P S + t l.g.g.a.t.;.;.` ` ;.t.",
"w.e.9.' ;.` / E y e F H H A A S b d r 0 0 w e < ; ; , s b L U V.C.U H K A @ u k.g.g.f.8.8.8.7.` ` ' ",
"w.w.' ' ` ;.c O F U 1 e H k d d d g , o   + ; ; ; ; < d b L N.C.C.C ; C S + u k.g.f.i.u.f.i.7.7.;.' ",
"w.w.' ) ` e.M o G B.d d A k s e e 0 , $ ; ; $ $ @ ; : e k G H H K k e A S @ u l.x.f.f.f.i.i.y.7.' ' ",
"w.w.' 7.y.c.N . F V.K A d d s : ;   : d s 9   O o @ ; ; j L e ; ; g J J S + i E.E.L.b.s.y.i.a.y.w.' ",
"w.r.i.f.s.&.D 0 A L F b 0 e 0 ; $ $ r b b h * $ * * * * d S d e w v K Z v w x 1.K.~.E.n.f.i.i.a.t.;.",
"e.a.f.f.>.= k V.b d d w   ; ; O $ s F V.V.L s d s @ O ; 0 d A H J J J r 1 U F # 3.(.~.U.f.y.y.t.t.e.",
"e.e.i.2. .q h J k s w < + @ * $ , d F V.B.P b b v r < @ 0 d b F A C v g h N.K w O.3.1.2.y.t.e.e.e.e.",
"w.e.e.5 @ F h * e r + O ; O O r d s F V.L L V.V.V.V.F O , d d d g , X G C.C.C.B.0 O O 5 e.8.7.w.w.e.",
"e.*.} 5 ; v d , r s ; $ * $ : k v k A P P U V.V.C.C.F O ; r e e 0 * @ H C.K L V.g 0 , i | *.e.w.e.w.",
"e.M o 0 r , 0 d d d s 0 o 1 j Y Y K b j N.C.V.C.V.C.F O @ ; ; * O @ * K N., d V.V.N.K k O M t.t.t.e.",
"p.M o 0 s 1 e d d s w < ; g A B.V.P A v L P N.B.C.B.G , ; $ * * O * 1 Z K s h J N.V.L k o M p.t.t.e.",
"f.V o 0 d d d d d s O $ s L V.V.V.V.U F h k J U C.P K J r . * * O : d d h G C , J C.L k o M t.t.e.;.",
"f.V X 0 d d s s s e @ * j I V.V.C.Y Y H v v A H Y K K H e o * * + , d d h S v 1 H B.L k $ l -.8.w.;.",
"g.V o 0 d d w ; > , e v Y V.V.C.C.C.Z.Y v 1 1 1 1 A A v 1 o $ * * 1 d d d h k F J L L F F p 2 =.e.w.",
"f.V o 0 d s 1 * * > e v V.V.V.V.Z.Z.Y Y v d 1 1 1 b Z v 1 * * * * 1 s s r r j F F F F F J r % =.w.;.",
"v.V . w s 1 > ; ; * + w V.P L V.Y Z.A s H Y Y H F 1 s I Y I 1 o o $ , > , : 1 h j h j h g , = =.e.y.",
"b.V o 0 e ; * ; * * $ r Y P K V.Y Y Z 1 Y C.Z.Y H s s Y Y C.d * * * * * * * , s s d r r r : % $.9.L.",
"b.N   * , ; ; * + * K I L K K V.K 1 b Y C.C.Z.Y Y H b 1 Z C.Y Y U g o O O o * d 1 : : : : $ X # z L.",
"b.[ = * * * * * O $ P I K G G Y F * b Y Y C.Z.C.C.K b * b C.Y Y C.v + # + + * r , * * * * : - & z L.",
"g.d.5.t o o o O . O , d G v h j r 1 1 v H U Y Y P b r * b C.Y P B.I F A A d 9 + * * O O X B H.j.j.L.",
"b.b.x.l = - = - - - * 0 A h r d r * 1 h F H Y K F k e * v Y L H B.P F G F h w O $ * - - - X./.E.P.I.",
"L.n.x.h.0.0.0.G.H.D.- + , , , d 1 1 1 h h h v h h d e ; e j h j H Z h h h d e * + - D.J.J.R.~.E.I.I.",
"P.L.n.n.L.U.E.W./.G.t * * * ; r 1 * 1 r s s r r r s e ; 1 r r d S v s s r r e * + - J._.(.!.(.W.T.Y.",
"T.U.T.U.E.W.E.E.E.T.l.#.O O + * 1 * * 1 s r 1 * > > ; ; ; > ; < d e ; ; , ; : * o - J.).(.(.^.^./.T.",
"E.E.!.W.E.E.E.E.W.E.M.,.+ X + * * * * > s w * * ; * ; * : & ; : s 0 * ; * * * ; + , R.).).(.).!././.",
"W.!.W.W.W.E.W.W.W.T.v.i.&.&. .= + + + + 1 1 * $ + + + + + + O + $ @ + O + O + + o.F.(.).(.(.(.(././.",
"W.W.W.W.W.W.E.W.E.T.b.v.v.v.>.= o O O O $ * * # O O o o   + O O X + O O O O O # D.`.).).(.(.(./././.",
"W.!.W.W.W.W.W.E.E.E.b.M.b.z.t.$.+.+.+.E % + X 7 +.} R R T &.<.@.Q Q E W $.1.S.S.R.(.(.).).(./.(././.",
"W.W.W.W.E.W.E.E.E.E.n.m.b.a.r.a.f.f.i.=.= X X 8 7.` ) ( ( 8.b.8.w.r.w.w.M././././././.(.(./.(./././.",
"E.W.W.W.E.W.W.!.E.U.b.b.M.v.p.u.a.a.i.;.R c c W ( ( ^ ~ ~ *.8.8.7.w.7.p.T././.E.E./././././././././."
};
